<svg xmlns="http://www.w3.org/2000/svg" version="1.1" xmlns:xlink="http://www.w3.org/1999/xlink" xmlns:svgjs="http://svgjs.dev/svgjs" width="128" height="128" viewBox="0 0 128 128"><g transform="matrix(0.8046875,0,0,0.8046875,12.760752631578946,12.760049157533807)"><svg viewBox="0 0 95 95" data-background-color="#ffffff" preserveAspectRatio="xMidYMid meet" height="128" width="128" xmlns="http://www.w3.org/2000/svg" xmlns:xlink="http://www.w3.org/1999/xlink"><g id="tight-bounds" transform="matrix(1,0,0,1,-0.24049999999999727,-0.23985116471564538)"><svg viewBox="0 0 95.481 95.47970232943129" height="95.47970232943129" width="95.481"><g><svg viewBox="0 0 95.481 95.47970232943129" height="95.47970232943129" width="95.481"><g><svg viewBox="0 0 95.481 95.47970232943129" height="95.47970232943129" width="95.481"><g id="textblocktransform"><svg viewBox="0 0 95.481 95.47970232943129" height="95.47970232943129" width="95.481" id="textblock"><g><svg viewBox="0 0 95.481 95.47970232943129" height="95.47970232943129" width="95.481"><g><svg viewBox="0 0 95.481 95.47970232943129" height="95.47970232943129" width="95.481"><g><svg xmlns="http://www.w3.org/2000/svg" xmlns:xlink="http://www.w3.org/1999/xlink" xml:space="preserve" version="1.0" style="shape-rendering:geometricPrecision;text-rendering:geometricPrecision;image-rendering:optimizeQuality;" viewBox="800 800 8400 8399.885836629517" x="0" y="0" fill-rule="evenodd" clip-rule="evenodd" height="95.47970232943129" width="95.481" class="icon-icon-0" data-fill-palette-color="accent" id="icon-0"><g fill="#8abe53" data-fill-palette-color="accent"><path class="" d="M7785 7613c172-183 449 78 278 261-1620 1723-4349 1779-6033 96-1640-1640-1640-4300 0-5940 1640-1640 4300-1640 5940 0 760 760 1230 1810 1230 2970 0 251-382 251-382 0 0-3391-4119-5099-6518-2700-2399 2399-691 6518 2700 6518 1070 0 2066-439 2785-1205z" fill="#ffffff" fill-rule="nonzero" data-fill-palette-color="accent"></path><path class="" d="M6138 3466l-2486 1185 974 212c95 21 158 109 150 204l-310 1940 1672-3541z m-3141 1084l3741-1862 0 0c161-80 335 89 257 252l-2284 4838 0 0c-87 184-366 120-362-84l44-2491-1347-295c-181-37-209-278-49-358z" fill="#ffffff" fill-rule="nonzero" data-fill-palette-color="accent"></path></g></svg></g></svg></g></svg></g></svg></g></svg></g></svg></g><defs></defs></svg><rect width="95.481" height="95.47970232943129" fill="none" stroke="none" visibility="hidden"></rect></g></svg></g></svg>