<svg xmlns="http://www.w3.org/2000/svg" version="1.1" xmlns:xlink="http://www.w3.org/1999/xlink" xmlns:svgjs="http://svgjs.dev/svgjs" width="2000" height="292" viewBox="0 0 2000 292"><g transform="matrix(1,0,0,1,-1.2121212121212466,0.8191780168056937)"><svg viewBox="0 0 396 58" data-background-color="#ffffff" preserveAspectRatio="xMidYMid meet" height="292" width="2000" xmlns="http://www.w3.org/2000/svg" xmlns:xlink="http://www.w3.org/1999/xlink"><g id="tight-bounds" transform="matrix(1,0,0,1,0.2400000000000091,-0.16271344169427948)"><svg viewBox="0 0 395.52 58.325426883388545" height="58.325426883388545" width="395.52"><g><svg viewBox="0 0 513.1595040844948 75.67315719810914" height="58.325426883388545" width="395.52"><g><rect width="6.790331752063395" height="75.67315719810914" x="93.07343476158483" y="0" fill="#096a2e" opacity="1" stroke-width="0" stroke="transparent" fill-opacity="1" class="rect-qz-0" data-fill-palette-color="primary" rx="1%" id="qz-0" data-palette-color="#096a2e"></rect></g><g transform="matrix(1,0,0,1,117.63950408449482,0.18824168457240376)"><svg viewBox="0 0 395.52 75.29667382896433" height="75.29667382896433" width="395.52"><g id="textblocktransform"><svg viewBox="0 0 395.52 75.29667382896433" height="75.29667382896433" width="395.52" id="textblock"><g><svg viewBox="0 0 395.52 75.29667382896433" height="75.29667382896433" width="395.52"><g transform="matrix(1,0,0,1,0,0)"><svg width="395.52" viewBox="1.29 -31.71 170.42000000000002 32.44" height="75.29667382896433" data-palette-color="#096a2e"><path d="M10.47 0.73Q12.87 0.73 14.95-0.13 17.04-1 18.51-2.54L18.51-2.54 17.99-3.83Q16.8-3.2 15.89-2.91 14.99-2.61 14.31-2.55 13.62-2.49 12.45-2.49L12.45-2.49Q10.3-2.49 8.8-3.72 7.3-4.96 6.52-6.88 5.74-8.81 5.64-10.86L5.64-10.86 17.46-11.01Q17.6-11.65 17.72-12.63 17.85-13.62 17.85-14.18L17.85-14.18Q17.85-16.67 16.98-18.42 16.11-20.17 14.62-21.06 13.13-21.95 11.33-21.95L11.33-21.95Q8.89-21.95 6.57-20.56 4.25-19.17 2.77-16.55 1.29-13.94 1.29-10.45L1.29-10.45Q1.29-6.91 2.59-4.37 3.88-1.83 5.99-0.55 8.11 0.73 10.47 0.73L10.47 0.73ZM10.13-19.56Q13.5-19.56 13.5-15.01L13.5-15.01Q13.5-14.65 13.46-14.12 13.43-13.6 13.35-13.33L13.35-13.33 5.69-12.77Q5.81-15.01 6.48-16.54 7.15-18.07 8.13-18.81 9.11-19.56 10.13-19.56L10.13-19.56ZM30.44 0.73Q32.71 0.73 34.85-0.16 36.98-1.05 38.01-2.27L38.01-2.27 37.4-3.69Q36.3-2.98 35.2-2.59 34.1-2.2 32.47-2.2L32.47-2.2Q30.1-2.2 28.46-3.81 26.83-5.42 26.02-7.79 25.22-10.16 25.22-12.38L25.22-12.38Q25.22-14.58 25.82-16.22 26.41-17.87 27.5-18.77 28.59-19.68 30.03-19.68L30.03-19.68Q31.44-19.68 32.33-18.54 33.23-17.41 33.96-15.67L33.96-15.67Q35.45-15.77 36.25-16.46 37.06-17.14 37.06-18.24L37.06-18.24Q37.06-19.24 36.41-20.09 35.76-20.95 34.45-21.46 33.13-21.97 31.17-21.97L31.17-21.97Q28.49-21.97 26.11-20.5 23.73-19.02 22.26-16.32 20.8-13.62 20.8-10.13L20.8-10.13Q20.8-7.2 21.99-4.71 23.19-2.22 25.39-0.74 27.59 0.73 30.44 0.73L30.44 0.73ZM50.17 0L50.46-1.95 46.89-2.83 46.89-16.48Q48.07-17.7 49.24-18.18 50.41-18.65 51.61-18.65L51.61-18.65Q53.32-18.65 54.56-17.59 55.81-16.53 55.81-14.16L55.81-14.16 55.81-2.78 52.44-1.81 52.14 0 63.11 0 63.4-1.93 59.86-2.78 59.86-14.62Q59.86-18.77 58.31-20.37 56.76-21.97 53.93-21.97L53.93-21.97Q50.19-21.97 46.75-18.16L46.75-18.16 46.5-18.16 46.89-20.75 46.89-31.13 46.28-31.71 39.23-31.18 38.94-29.32 42.84-28 42.84-2.83 39.08-1.93 38.81 0 50.17 0ZM74.99 0.66Q77.82 0.66 80.17-0.78 82.51-2.22 83.87-4.83 85.22-7.45 85.22-10.77L85.22-10.77Q85.22-14.11 84.06-16.66 82.9-19.21 80.72-20.63 78.53-22.05 75.58-22.05L75.58-22.05Q72.8-22.05 70.37-20.65 67.94-19.26 66.45-16.61 64.96-13.96 64.96-10.4L64.96-10.4Q64.96-7.23 66.14-4.72 67.33-2.22 69.58-0.78 71.84 0.66 74.99 0.66L74.99 0.66ZM74.55-19.48Q76.73-19.48 78.15-17.88 79.58-16.28 80.23-13.84 80.88-11.4 80.88-8.76L80.88-8.76Q80.88-6.96 80.31-5.35 79.75-3.74 78.61-2.72 77.46-1.71 75.82-1.71L75.82-1.71Q73.55-1.71 72.09-3.2 70.62-4.69 69.96-7.06 69.3-9.42 69.3-12.13L69.3-12.13Q69.3-14.14 69.87-15.81 70.43-17.48 71.61-18.48 72.8-19.48 74.55-19.48L74.55-19.48ZM96.96 0.73Q99.36 0.73 101.44-0.13 103.53-1 104.99-2.54L104.99-2.54 104.48-3.83Q103.29-3.2 102.38-2.91 101.48-2.61 100.8-2.55 100.11-2.49 98.94-2.49L98.94-2.49Q96.79-2.49 95.29-3.72 93.79-4.96 93.01-6.88 92.23-8.81 92.13-10.86L92.13-10.86 103.95-11.01Q104.09-11.65 104.21-12.63 104.34-13.62 104.34-14.18L104.34-14.18Q104.34-16.67 103.47-18.42 102.6-20.17 101.11-21.06 99.62-21.95 97.82-21.95L97.82-21.95Q95.38-21.95 93.06-20.56 90.74-19.17 89.26-16.55 87.78-13.94 87.78-10.45L87.78-10.45Q87.78-6.91 89.08-4.37 90.37-1.83 92.48-0.55 94.59 0.73 96.96 0.73L96.96 0.73ZM96.62-19.56Q99.99-19.56 99.99-15.01L99.99-15.01Q99.99-14.65 99.95-14.12 99.92-13.6 99.84-13.33L99.84-13.33 92.18-12.77Q92.3-15.01 92.97-16.54 93.64-18.07 94.62-18.81 95.6-19.56 96.62-19.56L96.62-19.56ZM116.93 0.73Q119.2 0.73 121.34-0.16 123.47-1.05 124.5-2.27L124.5-2.27 123.89-3.69Q122.79-2.98 121.69-2.59 120.59-2.2 118.96-2.2L118.96-2.2Q116.59-2.2 114.95-3.81 113.32-5.42 112.51-7.79 111.71-10.16 111.71-12.38L111.71-12.38Q111.71-14.58 112.3-16.22 112.9-17.87 113.99-18.77 115.08-19.68 116.52-19.68L116.52-19.68Q117.93-19.68 118.82-18.54 119.71-17.41 120.45-15.67L120.45-15.67Q121.94-15.77 122.74-16.46 123.55-17.14 123.55-18.24L123.55-18.24Q123.55-19.24 122.9-20.09 122.25-20.95 120.93-21.46 119.62-21.97 117.66-21.97L117.66-21.97Q114.98-21.97 112.6-20.5 110.22-19.02 108.75-16.32 107.29-13.62 107.29-10.13L107.29-10.13Q107.29-7.2 108.48-4.71 109.68-2.22 111.88-0.74 114.07 0.73 116.93 0.73L116.93 0.73ZM136.65 0L136.95-1.95 133.38-2.83 133.38-16.48Q134.56-17.7 135.73-18.18 136.9-18.65 138.1-18.65L138.1-18.65Q139.8-18.65 141.05-17.59 142.29-16.53 142.29-14.16L142.29-14.16 142.29-2.78 138.93-1.81 138.63 0 149.59 0 149.89-1.93 146.35-2.78 146.35-14.62Q146.35-18.77 144.8-20.37 143.25-21.97 140.41-21.97L140.41-21.97Q136.68-21.97 133.24-18.16L133.24-18.16 132.99-18.16 133.38-20.75 133.38-31.13 132.77-31.71 125.72-31.18 125.42-29.32 129.33-28 129.33-2.83 125.57-1.93 125.3 0 136.65 0ZM161.48 0.66Q164.31 0.66 166.66-0.78 169-2.22 170.36-4.83 171.71-7.45 171.71-10.77L171.71-10.77Q171.71-14.11 170.55-16.66 169.39-19.21 167.21-20.63 165.02-22.05 162.07-22.05L162.07-22.05Q159.28-22.05 156.86-20.65 154.43-19.26 152.94-16.61 151.45-13.96 151.45-10.4L151.45-10.4Q151.45-7.23 152.63-4.72 153.82-2.22 156.07-0.78 158.33 0.66 161.48 0.66L161.48 0.66ZM161.04-19.48Q163.21-19.48 164.64-17.88 166.07-16.28 166.72-13.84 167.37-11.4 167.37-8.76L167.37-8.76Q167.37-6.96 166.8-5.35 166.24-3.74 165.09-2.72 163.95-1.71 162.31-1.71L162.31-1.71Q160.04-1.71 158.58-3.2 157.11-4.69 156.45-7.06 155.79-9.42 155.79-12.13L155.79-12.13Q155.79-14.14 156.35-15.81 156.92-17.48 158.1-18.48 159.28-19.48 161.04-19.48L161.04-19.48Z" opacity="1" transform="matrix(1,0,0,1,0,0)" fill="#096a2e" class="wordmark-text-0" data-fill-palette-color="primary" id="text-0"></path></svg></g></svg></g></svg></g></svg></g><g transform="matrix(1,0,0,1,0,0.18824168457240376)"><svg viewBox="0 0 75.29769719073825 75.29667382896433" height="75.29667382896433" width="75.29769719073825"><g><svg xmlns="http://www.w3.org/2000/svg" xmlns:xlink="http://www.w3.org/1999/xlink" xml:space="preserve" version="1.0" style="shape-rendering:geometricPrecision;text-rendering:geometricPrecision;image-rendering:optimizeQuality;" viewBox="800 800 8400 8399.885836629517" x="0" y="0" fill-rule="evenodd" clip-rule="evenodd" height="75.29667382896433" width="75.29769719073825" class="icon-icon-0" data-fill-palette-color="accent" id="icon-0"><g fill="#8abe53" data-fill-palette-color="accent"><path class="" d="M7785 7613c172-183 449 78 278 261-1620 1723-4349 1779-6033 96-1640-1640-1640-4300 0-5940 1640-1640 4300-1640 5940 0 760 760 1230 1810 1230 2970 0 251-382 251-382 0 0-3391-4119-5099-6518-2700-2399 2399-691 6518 2700 6518 1070 0 2066-439 2785-1205z" fill="#8abe53" fill-rule="nonzero" data-fill-palette-color="accent"></path><path class="" d="M6138 3466l-2486 1185 974 212c95 21 158 109 150 204l-310 1940 1672-3541z m-3141 1084l3741-1862 0 0c161-80 335 89 257 252l-2284 4838 0 0c-87 184-366 120-362-84l44-2491-1347-295c-181-37-209-278-49-358z" fill="#8abe53" fill-rule="nonzero" data-fill-palette-color="accent"></path></g></svg></g></svg></g></svg></g><defs></defs></svg><rect width="395.52" height="58.325426883388545" fill="none" stroke="none" visibility="hidden"></rect></g></svg></g></svg>